<?xml version="1.0" encoding="utf-8"?>
<!-- Generator: Adobe Illustrator 21.1.0, SVG Export Plug-In . SVG Version: 6.00 Build 0)  -->
<svg version="1.1" id="Layer_1" xmlns="http://www.w3.org/2000/svg" xmlns:xlink="http://www.w3.org/1999/xlink" x="0px" y="0px"
	 viewBox="0 0 300 115" style="enable-background:new 0 0 300 115;" xml:space="preserve">
<style type="text/css">
	.st0{fill:url(#SVGID_1_);}
	.st1{fill:url(#SVGID_2_);}
	.st2{fill:url(#SVGID_3_);}
	.st3{fill:url(#SVGID_4_);}
	.st4{fill:url(#SVGID_5_);}
	.st5{fill:url(#SVGID_6_);}
	.st6{fill:url(#SVGID_7_);}
	.st7{fill:url(#SVGID_8_);}
	.st8{fill:url(#SVGID_9_);}
</style>
<g>
	<g>
		<linearGradient id="SVGID_1_" gradientUnits="userSpaceOnUse" x1="154.3591" y1="74.2405" x2="154.3591" y2="39.332">
			<stop  offset="0" style="stop-color:#0EA819"/>
			<stop  offset="0.257" style="stop-color:#0CC517"/>
			<stop  offset="0.5203" style="stop-color:#0BDB15"/>
			<stop  offset="0.7727" style="stop-color:#0AE814"/>
			<stop  offset="1" style="stop-color:#0AED14"/>
		</linearGradient>
		<path class="st0" d="M159.4,65.3c0.2-1.4-0.1-2.4-0.9-3.1c-0.8-0.7-2.3-1.4-4.6-2.3c-4-1.3-7-2.9-9-4.7s-2.8-4.1-2.4-6.9
			c0.4-2.8,1.9-5,4.4-6.6c2.5-1.6,5.5-2.4,9.1-2.4c3.9,0,6.9,0.9,9.1,2.8c2.2,1.8,3,4.4,2.4,7.6l0,0.1h-7.7c0.2-1.3-0.2-2.4-1-3.2
			c-0.9-0.8-2.1-1.2-3.7-1.2c-1.1,0-2.2,0.3-3.1,0.8c-0.9,0.6-1.4,1.2-1.6,2.1c-0.2,1.3,0.2,2.2,1,2.8c0.9,0.6,2.8,1.4,5.6,2.4
			c3.7,1.2,6.4,2.7,8.2,4.5c1.8,1.8,2.5,4.2,2,7.2c-0.5,2.9-1.9,5.1-4.4,6.7c-2.5,1.5-5.5,2.3-9.1,2.3c-3.7,0-6.9-0.8-9.5-2.5
			c-2.6-1.7-3.6-4.3-2.9-7.9l0-0.1h7.6c-0.3,1.7,0.2,2.8,1.4,3.5c1.2,0.7,2.6,1,4.3,1c1.1,0,2.2-0.3,3.1-0.8
			C158.7,66.8,159.2,66.1,159.4,65.3z"/>
		<linearGradient id="SVGID_2_" gradientUnits="userSpaceOnUse" x1="184.5234" y1="74.2405" x2="184.5234" y2="39.332">
			<stop  offset="0" style="stop-color:#0EA819"/>
			<stop  offset="0.257" style="stop-color:#0CC517"/>
			<stop  offset="0.5203" style="stop-color:#0BDB15"/>
			<stop  offset="0.7727" style="stop-color:#0AE814"/>
			<stop  offset="1" style="stop-color:#0AED14"/>
		</linearGradient>
		<path class="st1" d="M196.8,62.3l0,0.1c-0.5,4-2.1,7-4.6,8.9c-2.5,1.9-5.8,2.9-10,2.9c-4,0-7.2-1.3-9.4-3.9c-2.2-2.6-3-5.9-2.4-10
			l1.1-7.1c0.6-4.3,2.4-7.7,5.2-10.2c2.8-2.5,6.2-3.7,10.3-3.7c4.1,0,7.3,1,9.4,3c2.1,2,2.9,4.9,2.2,8.7l-0.1,0.1h-7.7
			c0.3-2.2,0.1-3.7-0.6-4.5c-0.7-0.9-2.1-1.3-4.2-1.3c-1.7,0-3.1,0.7-4.4,2.2c-1.2,1.4-2,3.3-2.3,5.7l-1.1,7.1
			c-0.4,2.5-0.1,4.4,0.7,5.8c0.8,1.4,2.2,2.1,4.2,2.1c1.7,0,3.1-0.5,4.1-1.4c1-0.9,1.6-2.4,1.9-4.5H196.8z"/>
		<linearGradient id="SVGID_3_" gradientUnits="userSpaceOnUse" x1="215.3537" y1="74.2405" x2="215.3537" y2="39.332">
			<stop  offset="0" style="stop-color:#0EA819"/>
			<stop  offset="0.257" style="stop-color:#0CC517"/>
			<stop  offset="0.5203" style="stop-color:#0BDB15"/>
			<stop  offset="0.7727" style="stop-color:#0AE814"/>
			<stop  offset="1" style="stop-color:#0AED14"/>
		</linearGradient>
		<path class="st2" d="M229.3,59.8c-0.7,4.4-2.5,7.8-5.5,10.5c-3,2.6-6.7,3.9-11,3.9c-4.1,0-7.4-1.4-9.7-4.1
			c-2.4-2.7-3.2-6.2-2.6-10.3l0.9-6.1c0.6-4.3,2.5-7.8,5.5-10.4c3-2.6,6.7-4,11.1-4c4.1,0,7.3,1.4,9.6,4.1c2.3,2.7,3.2,6.2,2.6,10.3
			L229.3,59.8z M222.4,53.7c0.4-2.5,0.1-4.5-0.8-6c-0.9-1.5-2.4-2.3-4.5-2.3c-2.1,0-3.8,0.8-5.2,2.3c-1.4,1.6-2.3,3.5-2.6,6
			l-0.9,6.2c-0.4,2.5-0.1,4.6,0.8,6.1c0.9,1.5,2.4,2.3,4.6,2.3c2,0,3.7-0.8,5.1-2.4c1.4-1.6,2.3-3.6,2.7-6L222.4,53.7z"/>
		<linearGradient id="SVGID_4_" gradientUnits="userSpaceOnUse" x1="279.4936" y1="73.7511" x2="279.4936" y2="39.8214">
			<stop  offset="0" style="stop-color:#0EA819"/>
			<stop  offset="0.257" style="stop-color:#0CC517"/>
			<stop  offset="0.5203" style="stop-color:#0BDB15"/>
			<stop  offset="0.7727" style="stop-color:#0AE814"/>
			<stop  offset="1" style="stop-color:#0AED14"/>
		</linearGradient>
		<path class="st3" d="M291.9,45.9h-9l-4.2,27.9h-7.9l4.2-27.9h-8.8l0.9-6.1h25.7L291.9,45.9z"/>
		<linearGradient id="SVGID_5_" gradientUnits="userSpaceOnUse" x1="248.117" y1="74.2405" x2="248.117" y2="39.8214">
			<stop  offset="0" style="stop-color:#0EA819"/>
			<stop  offset="0.257" style="stop-color:#0CC517"/>
			<stop  offset="0.5203" style="stop-color:#0BDB15"/>
			<stop  offset="0.7727" style="stop-color:#0AE814"/>
			<stop  offset="1" style="stop-color:#0AED14"/>
		</linearGradient>
		<path class="st4" d="M256.5,39.8l-3.3,22c-0.3,2.1-1.1,3.7-2.4,4.8c-1.3,1.1-2.8,1.6-4.6,1.6c-2,0-3.4-0.5-4.3-1.5
			c-0.9-1-1.2-2.6-0.9-4.8l3.3-22h-7.9h-4.6c0,0,4.2,2.4,3.6,6.9c0,0.1,0,0.2,0,0.3l-2.2,14.8c-0.6,3.8,0.3,6.9,2.6,9.1
			c2.3,2.2,5.5,3.3,9.6,3.3c4.2,0,7.7-1.1,10.6-3.2c2.9-2.1,4.6-5.2,5.2-9.2l3.3-22H256.5z"/>
	</g>
	<g>
		<linearGradient id="SVGID_6_" gradientUnits="userSpaceOnUse" x1="21.734" y1="74.6224" x2="21.734" y2="39.7139">
			<stop  offset="0" style="stop-color:#E8E8E8"/>
			<stop  offset="1" style="stop-color:#FFFFFF"/>
		</linearGradient>
		<path class="st5" d="M33.7,69.4c-1.4,1.4-3.2,2.6-5.5,3.7c-2.3,1-5.1,1.5-8.5,1.5c-4,0-7.2-1.3-9.6-3.9c-2.3-2.6-3.2-5.9-2.6-10
			l1.1-7.1c0.6-4.3,2.4-7.6,5.3-10.1c2.9-2.5,6.4-3.8,10.5-3.8c4.2,0,7.2,1,9.3,2.9c2,2,2.7,4.6,2.1,7.9l0,0.1h-7.4
			c0.2-1.7,0-3-0.8-3.8c-0.8-0.8-2-1.2-3.8-1.2c-1.8,0-3.3,0.7-4.7,2.2c-1.4,1.5-2.2,3.3-2.6,5.6l-1.1,7.1c-0.4,2.4-0.1,4.4,0.8,5.8
			c0.9,1.4,2.4,2.1,4.4,2.1c1.4,0,2.5-0.1,3.4-0.3s1.6-0.5,2.1-0.9l0.9-6.1h-6l0.8-5.2h13.9L33.7,69.4z"/>
		<linearGradient id="SVGID_7_" gradientUnits="userSpaceOnUse" x1="50.0269" y1="74.133" x2="50.0269" y2="40.2032">
			<stop  offset="0" style="stop-color:#E8E8E8"/>
			<stop  offset="1" style="stop-color:#FFFFFF"/>
		</linearGradient>
		<path class="st6" d="M56,67.5H46l-3,6.6h-8.3l16.1-33.9h4.2v0l0,0h4.2l6,33.9H57L56,67.5z M48.7,61.5h6.5L53.6,51l-0.1,0
			L48.7,61.5z"/>
		<linearGradient id="SVGID_8_" gradientUnits="userSpaceOnUse" x1="87.8953" y1="74.133" x2="87.8953" y2="40.2032">
			<stop  offset="0" style="stop-color:#E8E8E8"/>
			<stop  offset="1" style="stop-color:#FFFFFF"/>
		</linearGradient>
		<path class="st7" d="M86.7,63.9l0.1,0l11.2-23.7h10.4l-5.1,33.9h-7.9l3.3-21.8l-0.1,0L87.9,74.1h-5.3l-4.1-21.5h-0.1l-3.2,21.5
			h-7.9l5.1-33.9h10.3L86.7,63.9z"/>
		<linearGradient id="SVGID_9_" gradientUnits="userSpaceOnUse" x1="122.0119" y1="74.133" x2="122.0119" y2="40.2032">
			<stop  offset="0" style="stop-color:#E8E8E8"/>
			<stop  offset="1" style="stop-color:#FFFFFF"/>
		</linearGradient>
		<path class="st8" d="M130.4,59.6h-12l-1.3,8.5h14.3l-0.9,6.1h-22.2l5.1-33.9h22.2l-0.9,6.1h-14.4l-1.1,7.3h12L130.4,59.6z"/>
	</g>
</g>
</svg>
